<mxfile host="app.diagrams.net" agent="Mozilla/5.0 (Windows NT 10.0; Win64; x64) AppleWebKit/537.36 (KHTML, like Gecko) Chrome/127.0.0.0 Safari/537.36 OPR/113.0.0.0" version="24.8.3">
  <diagram name="P치gina-1" id="UHBcDo3w5O7GQZ0DHGnp">
    <mxGraphModel grid="0" page="1" gridSize="10" guides="1" tooltips="1" connect="1" arrows="1" fold="1" pageScale="1" pageWidth="827" pageHeight="1169" math="0" shadow="0">
      <root>
        <mxCell id="0" />
        <mxCell id="1" parent="0" />
        <mxCell id="_EzMTFCngacepDHgzK4X-21" style="rounded=0;orthogonalLoop=1;jettySize=auto;html=1;entryX=0.5;entryY=1;entryDx=0;entryDy=0;endArrow=none;endFill=0;exitX=0.5;exitY=0;exitDx=0;exitDy=0;" edge="1" parent="1" source="6fVsq-_J9UxJOpscQPYp-1" target="_EzMTFCngacepDHgzK4X-19">
          <mxGeometry relative="1" as="geometry" />
        </mxCell>
        <mxCell id="_EzMTFCngacepDHgzK4X-22" style="rounded=0;orthogonalLoop=1;jettySize=auto;html=1;endArrow=none;endFill=0;" edge="1" parent="1" source="PSQP5frEjgtf2xddnxFg-1" target="_EzMTFCngacepDHgzK4X-17">
          <mxGeometry relative="1" as="geometry">
            <mxPoint x="-580" y="220" as="targetPoint" />
          </mxGeometry>
        </mxCell>
        <mxCell id="_EzMTFCngacepDHgzK4X-33" style="rounded=0;orthogonalLoop=1;jettySize=auto;html=1;endArrow=none;endFill=0;entryX=0.875;entryY=0.875;entryDx=0;entryDy=0;entryPerimeter=0;exitX=0;exitY=0;exitDx=0;exitDy=0;" edge="1" parent="1" source="6fVsq-_J9UxJOpscQPYp-6" target="_EzMTFCngacepDHgzK4X-28">
          <mxGeometry relative="1" as="geometry" />
        </mxCell>
        <mxCell id="_EzMTFCngacepDHgzK4X-34" style="rounded=0;orthogonalLoop=1;jettySize=auto;html=1;endArrow=none;endFill=0;" edge="1" parent="1" source="6fVsq-_J9UxJOpscQPYp-6" target="_EzMTFCngacepDHgzK4X-30">
          <mxGeometry relative="1" as="geometry" />
        </mxCell>
        <mxCell id="_EzMTFCngacepDHgzK4X-35" style="rounded=0;orthogonalLoop=1;jettySize=auto;html=1;entryX=0.5;entryY=1;entryDx=0;entryDy=0;endArrow=none;endFill=0;exitX=0.35;exitY=0.067;exitDx=0;exitDy=0;exitPerimeter=0;" edge="1" parent="1" source="6fVsq-_J9UxJOpscQPYp-6" target="_EzMTFCngacepDHgzK4X-29">
          <mxGeometry relative="1" as="geometry" />
        </mxCell>
        <mxCell id="_EzMTFCngacepDHgzK4X-36" style="rounded=0;orthogonalLoop=1;jettySize=auto;html=1;endArrow=none;endFill=0;" edge="1" parent="1" source="6fVsq-_J9UxJOpscQPYp-6" target="_EzMTFCngacepDHgzK4X-32">
          <mxGeometry relative="1" as="geometry" />
        </mxCell>
        <mxCell id="_EzMTFCngacepDHgzK4X-37" style="rounded=0;orthogonalLoop=1;jettySize=auto;html=1;endArrow=none;endFill=0;" edge="1" parent="1" source="6fVsq-_J9UxJOpscQPYp-6" target="_EzMTFCngacepDHgzK4X-31">
          <mxGeometry relative="1" as="geometry" />
        </mxCell>
        <mxCell id="SDyo2RUHHrsPKv_Lk7U--41" style="edgeStyle=orthogonalEdgeStyle;rounded=0;orthogonalLoop=1;jettySize=auto;html=1;entryX=0.5;entryY=0;entryDx=0;entryDy=0;endArrow=none;endFill=0;" edge="1" parent="1" source="6fVsq-_J9UxJOpscQPYp-6" target="SDyo2RUHHrsPKv_Lk7U--40">
          <mxGeometry relative="1" as="geometry" />
        </mxCell>
        <mxCell id="Sppeee91M4I9eySE8Mxn-9" style="edgeStyle=orthogonalEdgeStyle;rounded=0;orthogonalLoop=1;jettySize=auto;html=1;endArrow=none;endFill=0;" edge="1" parent="1" source="6fVsq-_J9UxJOpscQPYp-6" target="Sppeee91M4I9eySE8Mxn-8">
          <mxGeometry relative="1" as="geometry" />
        </mxCell>
        <mxCell id="6fVsq-_J9UxJOpscQPYp-6" value="Empleado" style="rounded=0;whiteSpace=wrap;html=1;fillColor=#e1d5e7;strokeColor=#9673a6;" vertex="1" parent="1">
          <mxGeometry x="-96" y="360" width="120" height="60" as="geometry" />
        </mxCell>
        <mxCell id="_EzMTFCngacepDHgzK4X-38" style="rounded=0;orthogonalLoop=1;jettySize=auto;html=1;endArrow=none;endFill=0;" edge="1" parent="1" source="6fVsq-_J9UxJOpscQPYp-7" target="SDyo2RUHHrsPKv_Lk7U--8">
          <mxGeometry relative="1" as="geometry" />
        </mxCell>
        <mxCell id="_EzMTFCngacepDHgzK4X-39" style="rounded=0;orthogonalLoop=1;jettySize=auto;html=1;endArrow=none;endFill=0;" edge="1" parent="1" source="6fVsq-_J9UxJOpscQPYp-7" target="SDyo2RUHHrsPKv_Lk7U--11">
          <mxGeometry relative="1" as="geometry" />
        </mxCell>
        <mxCell id="_EzMTFCngacepDHgzK4X-40" style="rounded=0;orthogonalLoop=1;jettySize=auto;html=1;endArrow=none;endFill=0;" edge="1" parent="1" source="6fVsq-_J9UxJOpscQPYp-7" target="SDyo2RUHHrsPKv_Lk7U--12">
          <mxGeometry relative="1" as="geometry" />
        </mxCell>
        <mxCell id="_EzMTFCngacepDHgzK4X-41" style="rounded=0;orthogonalLoop=1;jettySize=auto;html=1;endArrow=none;endFill=0;" edge="1" parent="1" source="6fVsq-_J9UxJOpscQPYp-7" target="SDyo2RUHHrsPKv_Lk7U--13">
          <mxGeometry relative="1" as="geometry" />
        </mxCell>
        <mxCell id="6fVsq-_J9UxJOpscQPYp-7" value="Producto" style="rounded=0;whiteSpace=wrap;html=1;fillColor=#e1d5e7;strokeColor=#9673a6;" vertex="1" parent="1">
          <mxGeometry x="-380" y="890" width="120" height="60" as="geometry" />
        </mxCell>
        <mxCell id="SDyo2RUHHrsPKv_Lk7U--25" style="rounded=0;orthogonalLoop=1;jettySize=auto;html=1;endArrow=none;endFill=0;" edge="1" parent="1" source="_EzMTFCngacepDHgzK4X-6" target="SDyo2RUHHrsPKv_Lk7U--18">
          <mxGeometry relative="1" as="geometry" />
        </mxCell>
        <mxCell id="SDyo2RUHHrsPKv_Lk7U--26" style="rounded=0;orthogonalLoop=1;jettySize=auto;html=1;endArrow=none;endFill=0;" edge="1" parent="1" source="_EzMTFCngacepDHgzK4X-6" target="SDyo2RUHHrsPKv_Lk7U--20">
          <mxGeometry relative="1" as="geometry" />
        </mxCell>
        <mxCell id="SDyo2RUHHrsPKv_Lk7U--27" style="rounded=0;orthogonalLoop=1;jettySize=auto;html=1;endArrow=none;endFill=0;" edge="1" parent="1" source="_EzMTFCngacepDHgzK4X-6" target="SDyo2RUHHrsPKv_Lk7U--21">
          <mxGeometry relative="1" as="geometry" />
        </mxCell>
        <mxCell id="SDyo2RUHHrsPKv_Lk7U--28" style="rounded=0;orthogonalLoop=1;jettySize=auto;html=1;endArrow=none;endFill=0;" edge="1" parent="1" source="_EzMTFCngacepDHgzK4X-6" target="SDyo2RUHHrsPKv_Lk7U--22">
          <mxGeometry relative="1" as="geometry" />
        </mxCell>
        <mxCell id="SDyo2RUHHrsPKv_Lk7U--29" style="rounded=0;orthogonalLoop=1;jettySize=auto;html=1;endArrow=none;endFill=0;" edge="1" parent="1" source="_EzMTFCngacepDHgzK4X-6" target="SDyo2RUHHrsPKv_Lk7U--23">
          <mxGeometry relative="1" as="geometry" />
        </mxCell>
        <mxCell id="SDyo2RUHHrsPKv_Lk7U--30" style="rounded=0;orthogonalLoop=1;jettySize=auto;html=1;endArrow=none;endFill=0;" edge="1" parent="1" source="_EzMTFCngacepDHgzK4X-6" target="SDyo2RUHHrsPKv_Lk7U--24">
          <mxGeometry relative="1" as="geometry" />
        </mxCell>
        <mxCell id="SDyo2RUHHrsPKv_Lk7U--8" value="C칩digo producto" style="ellipse;whiteSpace=wrap;html=1;aspect=fixed;fillColor=#6a00ff;strokeColor=#3700CC;fontColor=#ffffff;" vertex="1" parent="1">
          <mxGeometry x="-510" y="990" width="80" height="80" as="geometry" />
        </mxCell>
        <mxCell id="SDyo2RUHHrsPKv_Lk7U--12" value="Precio" style="ellipse;whiteSpace=wrap;html=1;aspect=fixed;fillColor=#e1d5e7;strokeColor=#9673a6;" vertex="1" parent="1">
          <mxGeometry x="-310" y="990" width="80" height="80" as="geometry" />
        </mxCell>
        <mxCell id="_EzMTFCngacepDHgzK4X-16" value="C칩digo vivero " style="ellipse;whiteSpace=wrap;html=1;aspect=fixed;fillColor=#6a00ff;strokeColor=#3700CC;fontColor=#ffffff;" vertex="1" parent="1">
          <mxGeometry x="-764" y="240" width="80" height="80" as="geometry" />
        </mxCell>
        <mxCell id="SDyo2RUHHrsPKv_Lk7U--13" value="Descripcion" style="ellipse;whiteSpace=wrap;html=1;aspect=fixed;fillColor=#e1d5e7;strokeColor=#9673a6;" vertex="1" parent="1">
          <mxGeometry x="-210" y="990" width="80" height="80" as="geometry" />
        </mxCell>
        <mxCell id="_EzMTFCngacepDHgzK4X-26" style="rounded=0;orthogonalLoop=1;jettySize=auto;html=1;endArrow=none;endFill=0;exitX=0.25;exitY=0;exitDx=0;exitDy=0;" edge="1" parent="1" source="6fVsq-_J9UxJOpscQPYp-1" target="_EzMTFCngacepDHgzK4X-16">
          <mxGeometry relative="1" as="geometry" />
        </mxCell>
        <mxCell id="PSQP5frEjgtf2xddnxFg-9" style="rounded=0;orthogonalLoop=1;jettySize=auto;html=1;endArrow=none;endFill=0;" edge="1" parent="1" source="_EzMTFCngacepDHgzK4X-6" target="PSQP5frEjgtf2xddnxFg-8">
          <mxGeometry relative="1" as="geometry" />
        </mxCell>
        <mxCell id="_EzMTFCngacepDHgzK4X-6" value="Cliente fidelizado" style="rounded=0;whiteSpace=wrap;html=1;fillColor=#e1d5e7;strokeColor=#9673a6;" vertex="1" parent="1">
          <mxGeometry x="532" y="360" width="120" height="60" as="geometry" />
        </mxCell>
        <mxCell id="SDyo2RUHHrsPKv_Lk7U--16" value="Fecha" style="ellipse;whiteSpace=wrap;html=1;aspect=fixed;fillColor=#e1d5e7;strokeColor=#9673a6;" vertex="1" parent="1">
          <mxGeometry x="333" y="485" width="80" height="80" as="geometry" />
        </mxCell>
        <mxCell id="_EzMTFCngacepDHgzK4X-27" style="rounded=0;orthogonalLoop=1;jettySize=auto;html=1;endArrow=none;endFill=0;" edge="1" parent="1" source="PSQP5frEjgtf2xddnxFg-1" target="_EzMTFCngacepDHgzK4X-18">
          <mxGeometry relative="1" as="geometry">
            <mxPoint x="-480" y="220" as="targetPoint" />
          </mxGeometry>
        </mxCell>
        <mxCell id="SDyo2RUHHrsPKv_Lk7U--14" value="C칩digo pedido" style="ellipse;whiteSpace=wrap;html=1;aspect=fixed;fillColor=#6a00ff;strokeColor=#3700CC;fontColor=#ffffff;" vertex="1" parent="1">
          <mxGeometry x="141" y="485" width="80" height="80" as="geometry" />
        </mxCell>
        <mxCell id="_EzMTFCngacepDHgzK4X-42" style="rounded=0;orthogonalLoop=1;jettySize=auto;html=1;endArrow=none;endFill=0;entryX=1;entryY=1;entryDx=0;entryDy=0;" edge="1" parent="1" source="SDyo2RUHHrsPKv_Lk7U--31" target="SDyo2RUHHrsPKv_Lk7U--4">
          <mxGeometry relative="1" as="geometry">
            <mxPoint x="-377.85714285714266" y="610" as="sourcePoint" />
          </mxGeometry>
        </mxCell>
        <mxCell id="SDyo2RUHHrsPKv_Lk7U--18" value="C칩digo cliente" style="ellipse;whiteSpace=wrap;html=1;aspect=fixed;fillColor=#6a00ff;strokeColor=#3700CC;fontColor=#ffffff;" vertex="1" parent="1">
          <mxGeometry x="568" y="172.5" width="80" height="80" as="geometry" />
        </mxCell>
        <mxCell id="_EzMTFCngacepDHgzK4X-43" style="rounded=0;orthogonalLoop=1;jettySize=auto;html=1;endArrow=none;endFill=0;" edge="1" parent="1" source="SDyo2RUHHrsPKv_Lk7U--31" target="SDyo2RUHHrsPKv_Lk7U--5">
          <mxGeometry relative="1" as="geometry">
            <mxPoint x="-339.2857142857142" y="610" as="sourcePoint" />
          </mxGeometry>
        </mxCell>
        <mxCell id="SDyo2RUHHrsPKv_Lk7U--20" value="Nombre" style="ellipse;whiteSpace=wrap;html=1;aspect=fixed;fillColor=#e1d5e7;strokeColor=#9673a6;" vertex="1" parent="1">
          <mxGeometry x="658" y="182.5" width="80" height="80" as="geometry" />
        </mxCell>
        <mxCell id="J-nF8_KSfzNKeLKuR7F0-20" style="rounded=0;orthogonalLoop=1;jettySize=auto;html=1;endArrow=none;endFill=0;" edge="1" parent="1" source="SDyo2RUHHrsPKv_Lk7U--21" target="J-nF8_KSfzNKeLKuR7F0-18">
          <mxGeometry relative="1" as="geometry" />
        </mxCell>
        <mxCell id="J-nF8_KSfzNKeLKuR7F0-21" style="rounded=0;orthogonalLoop=1;jettySize=auto;html=1;endArrow=none;endFill=0;" edge="1" parent="1" source="SDyo2RUHHrsPKv_Lk7U--21" target="J-nF8_KSfzNKeLKuR7F0-19">
          <mxGeometry relative="1" as="geometry" />
        </mxCell>
        <mxCell id="SDyo2RUHHrsPKv_Lk7U--21" value="Apellidos" style="ellipse;whiteSpace=wrap;html=1;aspect=fixed;fillColor=#e1d5e7;strokeColor=#9673a6;" vertex="1" parent="1">
          <mxGeometry x="738" y="242.5" width="80" height="80" as="geometry" />
        </mxCell>
        <mxCell id="SDyo2RUHHrsPKv_Lk7U--37" style="edgeStyle=orthogonalEdgeStyle;rounded=0;orthogonalLoop=1;jettySize=auto;html=1;endArrow=none;endFill=0;" edge="1" parent="1" source="_EzMTFCngacepDHgzK4X-49" target="6fVsq-_J9UxJOpscQPYp-6">
          <mxGeometry relative="1" as="geometry" />
        </mxCell>
        <mxCell id="_EzMTFCngacepDHgzK4X-49" value="trabaja" style="rhombus;whiteSpace=wrap;html=1;fillColor=#fff2cc;strokeColor=#d6b656;" vertex="1" parent="1">
          <mxGeometry x="-370" y="350" width="80" height="80" as="geometry" />
        </mxCell>
        <mxCell id="_EzMTFCngacepDHgzK4X-18" value="Longitud" style="ellipse;whiteSpace=wrap;html=1;aspect=fixed;fillColor=#e1d5e7;strokeColor=#9673a6;" vertex="1" parent="1">
          <mxGeometry x="-510" y="150" width="80" height="80" as="geometry" />
        </mxCell>
        <mxCell id="_EzMTFCngacepDHgzK4X-46" style="rounded=0;orthogonalLoop=1;jettySize=auto;html=1;endArrow=none;endFill=0;" edge="1" parent="1" source="_EzMTFCngacepDHgzK4X-7" target="SDyo2RUHHrsPKv_Lk7U--14">
          <mxGeometry relative="1" as="geometry" />
        </mxCell>
        <mxCell id="_EzMTFCngacepDHgzK4X-47" style="rounded=0;orthogonalLoop=1;jettySize=auto;html=1;endArrow=none;endFill=0;" edge="1" parent="1" source="_EzMTFCngacepDHgzK4X-7" target="SDyo2RUHHrsPKv_Lk7U--16">
          <mxGeometry relative="1" as="geometry" />
        </mxCell>
        <mxCell id="_EzMTFCngacepDHgzK4X-17" value="Latitud" style="ellipse;whiteSpace=wrap;html=1;aspect=fixed;fillColor=#e1d5e7;strokeColor=#9673a6;" vertex="1" parent="1">
          <mxGeometry x="-610" y="150" width="80" height="80" as="geometry" />
        </mxCell>
        <mxCell id="SDyo2RUHHrsPKv_Lk7U--23" value="Telefono" style="ellipse;whiteSpace=wrap;html=1;aspect=fixed;fillColor=#e1d5e7;strokeColor=#9673a6;" vertex="1" parent="1">
          <mxGeometry x="788" y="412.5" width="80" height="80" as="geometry" />
        </mxCell>
        <mxCell id="_EzMTFCngacepDHgzK4X-31" value="DNI" style="ellipse;whiteSpace=wrap;html=1;aspect=fixed;fillColor=#e1d5e7;strokeColor=#9673a6;" vertex="1" parent="1">
          <mxGeometry x="109" y="210" width="80" height="80" as="geometry" />
        </mxCell>
        <mxCell id="SDyo2RUHHrsPKv_Lk7U--24" value="Fecha registro" style="ellipse;whiteSpace=wrap;html=1;aspect=fixed;fillColor=#e1d5e7;strokeColor=#9673a6;" vertex="1" parent="1">
          <mxGeometry x="718" y="482.5" width="80" height="80" as="geometry" />
        </mxCell>
        <mxCell id="_EzMTFCngacepDHgzK4X-32" value="Fecha ingreso" style="ellipse;whiteSpace=wrap;html=1;aspect=fixed;fillColor=#e1d5e7;strokeColor=#9673a6;" vertex="1" parent="1">
          <mxGeometry x="14" y="210" width="80" height="80" as="geometry" />
        </mxCell>
        <mxCell id="SDyo2RUHHrsPKv_Lk7U--22" value="Email" style="ellipse;whiteSpace=wrap;html=1;aspect=fixed;fillColor=#e1d5e7;strokeColor=#9673a6;" vertex="1" parent="1">
          <mxGeometry x="632" y="537" width="80" height="80" as="geometry" />
        </mxCell>
        <mxCell id="SDyo2RUHHrsPKv_Lk7U--34" value="" style="rounded=0;orthogonalLoop=1;jettySize=auto;html=1;endArrow=none;endFill=0;" edge="1" parent="1" source="6fVsq-_J9UxJOpscQPYp-1" target="SDyo2RUHHrsPKv_Lk7U--33">
          <mxGeometry relative="1" as="geometry" />
        </mxCell>
        <mxCell id="PSQP5frEjgtf2xddnxFg-2" style="rounded=0;orthogonalLoop=1;jettySize=auto;html=1;endArrow=none;endFill=0;exitX=0.75;exitY=0;exitDx=0;exitDy=0;" edge="1" parent="1" source="6fVsq-_J9UxJOpscQPYp-1" target="PSQP5frEjgtf2xddnxFg-1">
          <mxGeometry relative="1" as="geometry" />
        </mxCell>
        <mxCell id="6fVsq-_J9UxJOpscQPYp-1" value="Vivero" style="rounded=0;whiteSpace=wrap;html=1;fillColor=#e1d5e7;strokeColor=#9673a6;" vertex="1" parent="1">
          <mxGeometry x="-680" y="360" width="120" height="60" as="geometry" />
        </mxCell>
        <mxCell id="_EzMTFCngacepDHgzK4X-28" value="C칩digo empleado" style="ellipse;whiteSpace=wrap;html=1;aspect=fixed;fillColor=#6a00ff;strokeColor=#3700CC;fontColor=#ffffff;" vertex="1" parent="1">
          <mxGeometry x="-261" y="210" width="80" height="80" as="geometry" />
        </mxCell>
        <mxCell id="J-nF8_KSfzNKeLKuR7F0-16" style="rounded=0;orthogonalLoop=1;jettySize=auto;html=1;endArrow=none;endFill=0;" edge="1" parent="1" source="_EzMTFCngacepDHgzK4X-29" target="J-nF8_KSfzNKeLKuR7F0-14">
          <mxGeometry relative="1" as="geometry" />
        </mxCell>
        <mxCell id="J-nF8_KSfzNKeLKuR7F0-17" style="rounded=0;orthogonalLoop=1;jettySize=auto;html=1;endArrow=none;endFill=0;" edge="1" parent="1" source="_EzMTFCngacepDHgzK4X-29" target="J-nF8_KSfzNKeLKuR7F0-15">
          <mxGeometry relative="1" as="geometry">
            <mxPoint x="-37" y="217" as="sourcePoint" />
          </mxGeometry>
        </mxCell>
        <mxCell id="_EzMTFCngacepDHgzK4X-29" value="Apellidos" style="ellipse;whiteSpace=wrap;html=1;aspect=fixed;fillColor=#e1d5e7;strokeColor=#9673a6;" vertex="1" parent="1">
          <mxGeometry x="-70" y="210" width="80" height="80" as="geometry" />
        </mxCell>
        <mxCell id="_EzMTFCngacepDHgzK4X-52" style="edgeStyle=orthogonalEdgeStyle;rounded=0;orthogonalLoop=1;jettySize=auto;html=1;endArrow=none;endFill=0;" edge="1" parent="1" source="_EzMTFCngacepDHgzK4X-11" target="6fVsq-_J9UxJOpscQPYp-7">
          <mxGeometry relative="1" as="geometry" />
        </mxCell>
        <mxCell id="_EzMTFCngacepDHgzK4X-11" value="tiene" style="rhombus;whiteSpace=wrap;html=1;fillColor=#fff2cc;strokeColor=#d6b656;" vertex="1" parent="1">
          <mxGeometry x="-360" y="750" width="80" height="80" as="geometry" />
        </mxCell>
        <mxCell id="_EzMTFCngacepDHgzK4X-30" value="Nombre" style="ellipse;whiteSpace=wrap;html=1;aspect=fixed;fillColor=#e1d5e7;strokeColor=#9673a6;" vertex="1" parent="1">
          <mxGeometry x="-166" y="210" width="80" height="80" as="geometry" />
        </mxCell>
        <mxCell id="_EzMTFCngacepDHgzK4X-50" style="edgeStyle=orthogonalEdgeStyle;rounded=0;orthogonalLoop=1;jettySize=auto;html=1;entryX=0;entryY=0.5;entryDx=0;entryDy=0;endArrow=none;endFill=0;" edge="1" parent="1" source="SDyo2RUHHrsPKv_Lk7U--1" target="_EzMTFCngacepDHgzK4X-11">
          <mxGeometry relative="1" as="geometry" />
        </mxCell>
        <mxCell id="SDyo2RUHHrsPKv_Lk7U--1" value="Stock" style="ellipse;whiteSpace=wrap;html=1;aspect=fixed;fillColor=#e1d5e7;strokeColor=#9673a6;" vertex="1" parent="1">
          <mxGeometry x="-470" y="750" width="80" height="80" as="geometry" />
        </mxCell>
        <mxCell id="_EzMTFCngacepDHgzK4X-19" value="Nombre" style="ellipse;whiteSpace=wrap;html=1;aspect=fixed;fillColor=#e1d5e7;strokeColor=#9673a6;" vertex="1" parent="1">
          <mxGeometry x="-660" y="240" width="80" height="80" as="geometry" />
        </mxCell>
        <mxCell id="_EzMTFCngacepDHgzK4X-51" style="edgeStyle=orthogonalEdgeStyle;rounded=0;orthogonalLoop=1;jettySize=auto;html=1;endArrow=none;endFill=0;" edge="1" parent="1" source="SDyo2RUHHrsPKv_Lk7U--31" target="_EzMTFCngacepDHgzK4X-11">
          <mxGeometry relative="1" as="geometry">
            <mxPoint x="-320" y="670" as="sourcePoint" />
          </mxGeometry>
        </mxCell>
        <mxCell id="rifXGjwa7ciNM-QI1-3g-2" style="edgeStyle=orthogonalEdgeStyle;rounded=0;orthogonalLoop=1;jettySize=auto;html=1;endArrow=none;endFill=0;" edge="1" parent="1" source="_EzMTFCngacepDHgzK4X-7" target="rifXGjwa7ciNM-QI1-3g-1">
          <mxGeometry relative="1" as="geometry" />
        </mxCell>
        <mxCell id="Sppeee91M4I9eySE8Mxn-6" style="edgeStyle=orthogonalEdgeStyle;rounded=0;orthogonalLoop=1;jettySize=auto;html=1;entryX=0;entryY=0.5;entryDx=0;entryDy=0;endArrow=none;endFill=0;" edge="1" parent="1" source="_EzMTFCngacepDHgzK4X-7" target="Sppeee91M4I9eySE8Mxn-5">
          <mxGeometry relative="1" as="geometry" />
        </mxCell>
        <mxCell id="_EzMTFCngacepDHgzK4X-7" value="Pedido" style="rounded=0;whiteSpace=wrap;html=1;fillColor=#e1d5e7;strokeColor=#9673a6;" vertex="1" parent="1">
          <mxGeometry x="212" y="360" width="120" height="60" as="geometry" />
        </mxCell>
        <mxCell id="SDyo2RUHHrsPKv_Lk7U--4" value="C칩digo zona" style="ellipse;whiteSpace=wrap;html=1;aspect=fixed;fillColor=#6a00ff;strokeColor=#3700CC;fontColor=#ffffff;" vertex="1" parent="1">
          <mxGeometry x="-466" y="512.5" width="80" height="80" as="geometry" />
        </mxCell>
        <mxCell id="SDyo2RUHHrsPKv_Lk7U--5" value="Nombre" style="ellipse;whiteSpace=wrap;html=1;aspect=fixed;fillColor=#e1d5e7;strokeColor=#9673a6;" vertex="1" parent="1">
          <mxGeometry x="-254" y="512.5" width="80" height="80" as="geometry" />
        </mxCell>
        <mxCell id="SDyo2RUHHrsPKv_Lk7U--11" value="Nombre" style="ellipse;whiteSpace=wrap;html=1;aspect=fixed;fillColor=#e1d5e7;strokeColor=#9673a6;" vertex="1" parent="1">
          <mxGeometry x="-410" y="990" width="80" height="80" as="geometry" />
        </mxCell>
        <mxCell id="_EzMTFCngacepDHgzK4X-53" style="edgeStyle=orthogonalEdgeStyle;rounded=0;orthogonalLoop=1;jettySize=auto;html=1;entryX=0;entryY=0.5;entryDx=0;entryDy=0;endArrow=none;endFill=0;" edge="1" parent="1" source="6fVsq-_J9UxJOpscQPYp-1" target="_EzMTFCngacepDHgzK4X-49">
          <mxGeometry relative="1" as="geometry">
            <mxPoint x="-260" y="640" as="sourcePoint" />
          </mxGeometry>
        </mxCell>
        <mxCell id="PSQP5frEjgtf2xddnxFg-27" style="rounded=0;orthogonalLoop=1;jettySize=auto;html=1;endArrow=none;endFill=0;" edge="1" parent="1" source="SDyo2RUHHrsPKv_Lk7U--31" target="PSQP5frEjgtf2xddnxFg-26">
          <mxGeometry relative="1" as="geometry" />
        </mxCell>
        <mxCell id="SDyo2RUHHrsPKv_Lk7U--31" value="Zona" style="shape=process;whiteSpace=wrap;html=1;backgroundOutline=1;fillColor=#e1d5e7;strokeColor=#9673a6;" vertex="1" parent="1">
          <mxGeometry x="-380" y="630" width="120" height="60" as="geometry" />
        </mxCell>
        <mxCell id="SDyo2RUHHrsPKv_Lk7U--35" style="rounded=0;orthogonalLoop=1;jettySize=auto;html=1;endArrow=none;endFill=0;" edge="1" parent="1" source="SDyo2RUHHrsPKv_Lk7U--33" target="SDyo2RUHHrsPKv_Lk7U--31">
          <mxGeometry relative="1" as="geometry" />
        </mxCell>
        <mxCell id="SDyo2RUHHrsPKv_Lk7U--33" value="tiene" style="rhombus;whiteSpace=wrap;html=1;fillColor=#fff2cc;strokeColor=#d6b656;" vertex="1" parent="1">
          <mxGeometry x="-660" y="620" width="80" height="80" as="geometry" />
        </mxCell>
        <mxCell id="SDyo2RUHHrsPKv_Lk7U--42" style="edgeStyle=orthogonalEdgeStyle;rounded=0;orthogonalLoop=1;jettySize=auto;html=1;endArrow=none;endFill=0;" edge="1" parent="1" source="SDyo2RUHHrsPKv_Lk7U--40" target="SDyo2RUHHrsPKv_Lk7U--31">
          <mxGeometry relative="1" as="geometry" />
        </mxCell>
        <mxCell id="SDyo2RUHHrsPKv_Lk7U--45" style="rounded=0;orthogonalLoop=1;jettySize=auto;html=1;entryX=0.5;entryY=0;entryDx=0;entryDy=0;endArrow=none;endFill=0;" edge="1" parent="1" source="SDyo2RUHHrsPKv_Lk7U--40" target="SDyo2RUHHrsPKv_Lk7U--43">
          <mxGeometry relative="1" as="geometry" />
        </mxCell>
        <mxCell id="SDyo2RUHHrsPKv_Lk7U--40" value="realiza" style="rhombus;whiteSpace=wrap;html=1;fillColor=#fff2cc;strokeColor=#d6b656;" vertex="1" parent="1">
          <mxGeometry x="-76" y="620" width="80" height="80" as="geometry" />
        </mxCell>
        <mxCell id="SDyo2RUHHrsPKv_Lk7U--43" value="Tarea" style="ellipse;whiteSpace=wrap;html=1;aspect=fixed;fillColor=#e1d5e7;strokeColor=#9673a6;" vertex="1" parent="1">
          <mxGeometry x="-76" y="740" width="80" height="80" as="geometry" />
        </mxCell>
        <mxCell id="SDyo2RUHHrsPKv_Lk7U--49" value="" style="endArrow=none;html=1;rounded=1;curved=1;edgeStyle=orthogonalEdgeStyle;startArrow=classic;startFill=1;endFill=0;" edge="1" parent="1">
          <mxGeometry width="50" height="50" relative="1" as="geometry">
            <mxPoint x="4" y="480" as="sourcePoint" />
            <mxPoint x="-166" y="350" as="targetPoint" />
          </mxGeometry>
        </mxCell>
        <mxCell id="J-nF8_KSfzNKeLKuR7F0-8" value="Hist칩rico de puesto" style="ellipse;shape=doubleEllipse;whiteSpace=wrap;html=1;aspect=fixed;fillColor=#e1d5e7;strokeColor=#9673a6;" vertex="1" parent="1">
          <mxGeometry x="-370" y="230" width="80" height="80" as="geometry" />
        </mxCell>
        <mxCell id="J-nF8_KSfzNKeLKuR7F0-9" style="rounded=0;orthogonalLoop=1;jettySize=auto;html=1;endArrow=none;endFill=0;" edge="1" parent="1" source="J-nF8_KSfzNKeLKuR7F0-8" target="_EzMTFCngacepDHgzK4X-49">
          <mxGeometry relative="1" as="geometry">
            <mxPoint x="-22" y="360" as="targetPoint" />
          </mxGeometry>
        </mxCell>
        <mxCell id="J-nF8_KSfzNKeLKuR7F0-14" value="Primer apellido" style="ellipse;whiteSpace=wrap;html=1;aspect=fixed;fillColor=#e1d5e7;strokeColor=#9673a6;" vertex="1" parent="1">
          <mxGeometry x="-120" y="100" width="80" height="80" as="geometry" />
        </mxCell>
        <mxCell id="PSQP5frEjgtf2xddnxFg-1" value="Georreferencia" style="ellipse;whiteSpace=wrap;html=1;aspect=fixed;fillColor=#e1d5e7;strokeColor=#9673a6;" vertex="1" parent="1">
          <mxGeometry x="-565" y="240" width="80" height="80" as="geometry" />
        </mxCell>
        <mxCell id="J-nF8_KSfzNKeLKuR7F0-15" value="Segundo apellido" style="ellipse;whiteSpace=wrap;html=1;aspect=fixed;fillColor=#e1d5e7;strokeColor=#9673a6;" vertex="1" parent="1">
          <mxGeometry x="-10" y="100" width="80" height="80" as="geometry" />
        </mxCell>
        <mxCell id="J-nF8_KSfzNKeLKuR7F0-18" value="Primer apellido" style="ellipse;whiteSpace=wrap;html=1;aspect=fixed;fillColor=#e1d5e7;strokeColor=#9673a6;" vertex="1" parent="1">
          <mxGeometry x="768" y="142.5" width="80" height="80" as="geometry" />
        </mxCell>
        <mxCell id="J-nF8_KSfzNKeLKuR7F0-19" value="Segundo apellido" style="ellipse;whiteSpace=wrap;html=1;aspect=fixed;fillColor=#e1d5e7;strokeColor=#9673a6;" vertex="1" parent="1">
          <mxGeometry x="848" y="202.5" width="80" height="80" as="geometry" />
        </mxCell>
        <mxCell id="PSQP5frEjgtf2xddnxFg-8" value="Bonificaci칩n" style="ellipse;whiteSpace=wrap;html=1;aspect=fixed;fillColor=#e1d5e7;strokeColor=#9673a6;dashed=1;" vertex="1" parent="1">
          <mxGeometry x="788" y="322.5" width="80" height="80" as="geometry" />
        </mxCell>
        <mxCell id="PSQP5frEjgtf2xddnxFg-22" style="rounded=0;orthogonalLoop=1;jettySize=auto;html=1;endArrow=none;endFill=0;" edge="1" parent="1" source="PSQP5frEjgtf2xddnxFg-26" target="PSQP5frEjgtf2xddnxFg-25">
          <mxGeometry relative="1" as="geometry" />
        </mxCell>
        <mxCell id="PSQP5frEjgtf2xddnxFg-23" style="rounded=0;orthogonalLoop=1;jettySize=auto;html=1;endArrow=none;endFill=0;" edge="1" parent="1" source="PSQP5frEjgtf2xddnxFg-26" target="PSQP5frEjgtf2xddnxFg-24">
          <mxGeometry relative="1" as="geometry" />
        </mxCell>
        <mxCell id="PSQP5frEjgtf2xddnxFg-24" value="Longitud" style="ellipse;whiteSpace=wrap;html=1;aspect=fixed;fillColor=#e1d5e7;strokeColor=#9673a6;" vertex="1" parent="1">
          <mxGeometry x="-298" y="420" width="80" height="80" as="geometry" />
        </mxCell>
        <mxCell id="PSQP5frEjgtf2xddnxFg-25" value="Latitud" style="ellipse;whiteSpace=wrap;html=1;aspect=fixed;fillColor=#e1d5e7;strokeColor=#9673a6;" vertex="1" parent="1">
          <mxGeometry x="-432.5" y="423" width="80" height="80" as="geometry" />
        </mxCell>
        <mxCell id="PSQP5frEjgtf2xddnxFg-26" value="Georreferencia" style="ellipse;whiteSpace=wrap;html=1;aspect=fixed;fillColor=#e1d5e7;strokeColor=#9673a6;" vertex="1" parent="1">
          <mxGeometry x="-360" y="510" width="80" height="80" as="geometry" />
        </mxCell>
        <mxCell id="PSQP5frEjgtf2xddnxFg-28" value="E" style="text;html=1;align=center;verticalAlign=middle;resizable=0;points=[];autosize=1;strokeColor=none;fillColor=none;fontStyle=1" vertex="1" parent="1">
          <mxGeometry x="-635" y="620" width="30" height="30" as="geometry" />
        </mxCell>
        <mxCell id="J-nF8_KSfzNKeLKuR7F0-24" value="(1,1)" style="text;html=1;align=center;verticalAlign=middle;resizable=0;points=[];autosize=1;strokeColor=none;fillColor=none;" vertex="1" parent="1">
          <mxGeometry x="-560" y="360" width="50" height="30" as="geometry" />
        </mxCell>
        <mxCell id="J-nF8_KSfzNKeLKuR7F0-25" value="(1,N)" style="text;html=1;align=center;verticalAlign=middle;resizable=0;points=[];autosize=1;strokeColor=none;fillColor=none;" vertex="1" parent="1">
          <mxGeometry x="-145" y="360" width="50" height="30" as="geometry" />
        </mxCell>
        <mxCell id="J-nF8_KSfzNKeLKuR7F0-26" value="(1,N)" style="text;html=1;align=center;verticalAlign=middle;resizable=0;points=[];autosize=1;strokeColor=none;fillColor=none;" vertex="1" parent="1">
          <mxGeometry x="-40" y="420" width="50" height="30" as="geometry" />
        </mxCell>
        <mxCell id="J-nF8_KSfzNKeLKuR7F0-27" value="(1,1)" style="text;html=1;align=center;verticalAlign=middle;resizable=0;points=[];autosize=1;strokeColor=none;fillColor=none;" vertex="1" parent="1">
          <mxGeometry x="-260" y="660" width="50" height="30" as="geometry" />
        </mxCell>
        <mxCell id="J-nF8_KSfzNKeLKuR7F0-28" value="(1,1)" style="text;html=1;align=center;verticalAlign=middle;resizable=0;points=[];autosize=1;strokeColor=none;fillColor=none;" vertex="1" parent="1">
          <mxGeometry x="-670" y="420" width="50" height="30" as="geometry" />
        </mxCell>
        <mxCell id="J-nF8_KSfzNKeLKuR7F0-29" value="(1,N)" style="text;html=1;align=center;verticalAlign=middle;resizable=0;points=[];autosize=1;strokeColor=none;fillColor=none;" vertex="1" parent="1">
          <mxGeometry x="-430" y="660" width="50" height="30" as="geometry" />
        </mxCell>
        <mxCell id="J-nF8_KSfzNKeLKuR7F0-30" value="(1,N)" style="text;html=1;align=center;verticalAlign=middle;resizable=0;points=[];autosize=1;strokeColor=none;fillColor=none;" vertex="1" parent="1">
          <mxGeometry x="-320" y="690" width="50" height="30" as="geometry" />
        </mxCell>
        <mxCell id="J-nF8_KSfzNKeLKuR7F0-31" value="(1,N)" style="text;html=1;align=center;verticalAlign=middle;resizable=0;points=[];autosize=1;strokeColor=none;fillColor=none;" vertex="1" parent="1">
          <mxGeometry x="-321" y="860" width="50" height="30" as="geometry" />
        </mxCell>
        <mxCell id="rifXGjwa7ciNM-QI1-3g-3" style="edgeStyle=orthogonalEdgeStyle;rounded=0;orthogonalLoop=1;jettySize=auto;html=1;entryX=1;entryY=0.5;entryDx=0;entryDy=0;endArrow=none;endFill=0;" edge="1" parent="1" source="rifXGjwa7ciNM-QI1-3g-1" target="6fVsq-_J9UxJOpscQPYp-7">
          <mxGeometry relative="1" as="geometry" />
        </mxCell>
        <mxCell id="rifXGjwa7ciNM-QI1-3g-1" value="compone" style="rhombus;whiteSpace=wrap;html=1;fillColor=#fff2cc;strokeColor=#d6b656;" vertex="1" parent="1">
          <mxGeometry x="232" y="880" width="80" height="80" as="geometry" />
        </mxCell>
        <mxCell id="rifXGjwa7ciNM-QI1-3g-4" value="(1,N)" style="text;html=1;align=center;verticalAlign=middle;resizable=0;points=[];autosize=1;strokeColor=none;fillColor=none;" vertex="1" parent="1">
          <mxGeometry x="-261" y="920" width="50" height="30" as="geometry" />
        </mxCell>
        <mxCell id="rifXGjwa7ciNM-QI1-3g-5" value="(1,N)" style="text;html=1;align=center;verticalAlign=middle;resizable=0;points=[];autosize=1;strokeColor=none;fillColor=none;" vertex="1" parent="1">
          <mxGeometry x="229" y="434" width="50" height="30" as="geometry" />
        </mxCell>
        <mxCell id="OoaHhxPhFE34ElYlGh2i-1" value="(1, 1)" style="text;html=1;align=center;verticalAlign=middle;resizable=0;points=[];autosize=1;strokeColor=none;fillColor=none;" vertex="1" parent="1">
          <mxGeometry x="-160" y="450" width="50" height="30" as="geometry" />
        </mxCell>
        <mxCell id="Sppeee91M4I9eySE8Mxn-7" style="edgeStyle=orthogonalEdgeStyle;rounded=0;orthogonalLoop=1;jettySize=auto;html=1;entryX=0;entryY=0.5;entryDx=0;entryDy=0;endArrow=none;endFill=0;" edge="1" parent="1" source="Sppeee91M4I9eySE8Mxn-5" target="_EzMTFCngacepDHgzK4X-6">
          <mxGeometry relative="1" as="geometry" />
        </mxCell>
        <mxCell id="Sppeee91M4I9eySE8Mxn-5" value="realiza" style="rhombus;whiteSpace=wrap;html=1;fillColor=#fff2cc;strokeColor=#d6b656;" vertex="1" parent="1">
          <mxGeometry x="390" y="350" width="80" height="80" as="geometry" />
        </mxCell>
        <mxCell id="Sppeee91M4I9eySE8Mxn-10" style="edgeStyle=orthogonalEdgeStyle;rounded=0;orthogonalLoop=1;jettySize=auto;html=1;entryX=0;entryY=0.5;entryDx=0;entryDy=0;endArrow=none;endFill=0;" edge="1" parent="1" source="Sppeee91M4I9eySE8Mxn-8" target="_EzMTFCngacepDHgzK4X-7">
          <mxGeometry relative="1" as="geometry" />
        </mxCell>
        <mxCell id="Sppeee91M4I9eySE8Mxn-8" value="entrega" style="rhombus;whiteSpace=wrap;html=1;fillColor=#fff2cc;strokeColor=#d6b656;" vertex="1" parent="1">
          <mxGeometry x="75" y="350" width="80" height="80" as="geometry" />
        </mxCell>
        <mxCell id="Sppeee91M4I9eySE8Mxn-12" value="(1,N)" style="text;html=1;align=center;verticalAlign=middle;resizable=0;points=[];autosize=1;strokeColor=none;fillColor=none;" vertex="1" parent="1">
          <mxGeometry x="171" y="364" width="45" height="26" as="geometry" />
        </mxCell>
        <mxCell id="Sppeee91M4I9eySE8Mxn-13" value="(1,1)" style="text;html=1;align=center;verticalAlign=middle;resizable=0;points=[];autosize=1;strokeColor=none;fillColor=none;" vertex="1" parent="1">
          <mxGeometry x="20" y="364" width="43" height="26" as="geometry" />
        </mxCell>
        <mxCell id="Sppeee91M4I9eySE8Mxn-14" value="(1,N)" style="text;html=1;align=center;verticalAlign=middle;resizable=0;points=[];autosize=1;strokeColor=none;fillColor=none;" vertex="1" parent="1">
          <mxGeometry x="328" y="364" width="45" height="26" as="geometry" />
        </mxCell>
        <mxCell id="Sppeee91M4I9eySE8Mxn-15" value="(1,1)" style="text;html=1;align=center;verticalAlign=middle;resizable=0;points=[];autosize=1;strokeColor=none;fillColor=none;" vertex="1" parent="1">
          <mxGeometry x="495" y="366" width="43" height="26" as="geometry" />
        </mxCell>
        <mxCell id="SVhetFfLUENrsktP4NlG-2" value="M,N" style="text;html=1;align=center;verticalAlign=middle;resizable=0;points=[];autosize=1;strokeColor=none;fillColor=none;" vertex="1" parent="1">
          <mxGeometry x="-278" y="777" width="40" height="26" as="geometry" />
        </mxCell>
        <mxCell id="SVhetFfLUENrsktP4NlG-4" value="1:N" style="text;html=1;align=center;verticalAlign=middle;resizable=0;points=[];autosize=1;strokeColor=none;fillColor=none;" vertex="1" parent="1">
          <mxGeometry x="-638.5" y="706" width="37" height="26" as="geometry" />
        </mxCell>
        <mxCell id="SVhetFfLUENrsktP4NlG-5" value="1:N" style="text;html=1;align=center;verticalAlign=middle;resizable=0;points=[];autosize=1;strokeColor=none;fillColor=none;" vertex="1" parent="1">
          <mxGeometry x="18" y="647" width="37" height="26" as="geometry" />
        </mxCell>
        <mxCell id="SVhetFfLUENrsktP4NlG-6" value="1:N" style="text;html=1;align=center;verticalAlign=middle;resizable=0;points=[];autosize=1;strokeColor=none;fillColor=none;" vertex="1" parent="1">
          <mxGeometry x="-348.5" y="432.5" width="37" height="26" as="geometry" />
        </mxCell>
        <mxCell id="SVhetFfLUENrsktP4NlG-7" value="1:N" style="text;html=1;align=center;verticalAlign=middle;resizable=0;points=[];autosize=1;strokeColor=none;fillColor=none;" vertex="1" parent="1">
          <mxGeometry x="96.5" y="436" width="37" height="26" as="geometry" />
        </mxCell>
        <mxCell id="SVhetFfLUENrsktP4NlG-8" value="1:N" style="text;html=1;align=center;verticalAlign=middle;resizable=0;points=[];autosize=1;strokeColor=none;fillColor=none;" vertex="1" parent="1">
          <mxGeometry x="411.5" y="438" width="37" height="26" as="geometry" />
        </mxCell>
        <mxCell id="SVhetFfLUENrsktP4NlG-9" value="M,N" style="text;html=1;align=center;verticalAlign=middle;resizable=0;points=[];autosize=1;strokeColor=none;fillColor=none;" vertex="1" parent="1">
          <mxGeometry x="252" y="972" width="40" height="26" as="geometry" />
        </mxCell>
      </root>
    </mxGraphModel>
  </diagram>
</mxfile>
